<svg xmlns="http://www.w3.org/2000/svg" width="379.28000000000003" height="35" viewBox="0 0 379.28000000000003 35"><rect class="svg__rect" x="0" y="0" width="115.31" height="35" fill="#A1A7D4"/><rect class="svg__rect" x="113.31" y="0" width="265.97" height="35" fill="#E224EE"/><path class="svg__text" d="M15.69 22L14.22 22L14.22 13.47L16.14 13.47L18.60 20.01L21.06 13.47L22.97 13.47L22.97 22L21.49 22L21.49 19.19L21.64 15.43L19.12 22L18.06 22L15.55 15.43L15.69 19.19L15.69 22ZM28.49 22L26.95 22L30.17 13.47L31.50 13.47L34.73 22L33.18 22L32.49 20.01L29.18 20.01L28.49 22ZM30.83 15.28L29.60 18.82L32.07 18.82L30.83 15.28ZM41.14 22L38.69 22L38.69 13.47L41.21 13.47Q42.34 13.47 43.21 13.97Q44.09 14.48 44.57 15.40Q45.05 16.33 45.05 17.52L45.05 17.52L45.05 17.95Q45.05 19.16 44.57 20.08Q44.08 21.00 43.19 21.50Q42.30 22 41.14 22L41.14 22ZM40.17 14.66L40.17 20.82L41.14 20.82Q42.30 20.82 42.93 20.09Q43.55 19.36 43.56 17.99L43.56 17.99L43.56 17.52Q43.56 16.13 42.96 15.40Q42.35 14.66 41.21 14.66L41.21 14.66L40.17 14.66ZM55.09 22L49.51 22L49.51 13.47L55.05 13.47L55.05 14.66L51.00 14.66L51.00 17.02L54.50 17.02L54.50 18.19L51.00 18.19L51.00 20.82L55.09 20.82L55.09 22ZM66.65 22L64.68 13.47L66.15 13.47L67.47 19.88L69.10 13.47L70.34 13.47L71.96 19.89L73.27 13.47L74.74 13.47L72.77 22L71.35 22L69.73 15.77L68.07 22L66.65 22ZM80.38 22L78.90 22L78.90 13.47L80.38 13.47L80.38 22ZM86.87 14.66L84.23 14.66L84.23 13.47L91.00 13.47L91.00 14.66L88.34 14.66L88.34 22L86.87 22L86.87 14.66ZM96.24 22L94.75 22L94.75 13.47L96.24 13.47L96.24 17.02L100.05 17.02L100.05 13.47L101.53 13.47L101.53 22L100.05 22L100.05 18.21L96.24 18.21L96.24 22Z" fill="#FFFFFF"/><path class="svg__text" d="M129.88 22L127.50 22L127.50 13.60L131.34 13.60Q132.48 13.60 133.32 13.98Q134.16 14.35 134.62 15.06Q135.07 15.76 135.07 16.71L135.07 16.71Q135.07 17.66 134.62 18.35Q134.16 19.05 133.32 19.42Q132.48 19.80 131.34 19.80L131.34 19.80L129.88 19.80L129.88 22ZM129.88 15.47L129.88 17.93L131.20 17.93Q131.93 17.93 132.30 17.61Q132.67 17.29 132.67 16.71L132.67 16.71Q132.67 16.12 132.30 15.80Q131.93 15.47 131.20 15.47L131.20 15.47L129.88 15.47ZM146.21 22L139.83 22L139.83 13.60L142.20 13.60L142.20 20.11L146.21 20.11L146.21 22ZM152.05 22L149.62 22L153.33 13.60L155.68 13.60L159.39 22L156.92 22L156.26 20.37L152.71 20.37L152.05 22ZM154.49 15.93L153.40 18.61L155.56 18.61L154.49 15.93ZM162.96 21.24L162.96 21.24L163.74 19.49Q164.30 19.86 165.04 20.09Q165.79 20.32 166.51 20.32L166.51 20.32Q167.87 20.32 167.88 19.64L167.88 19.64Q167.88 19.28 167.49 19.11Q167.10 18.93 166.23 18.74L166.23 18.74Q165.28 18.53 164.65 18.30Q164.01 18.06 163.56 17.55Q163.11 17.03 163.11 16.16L163.11 16.16Q163.11 15.39 163.52 14.77Q163.94 14.15 164.78 13.79Q165.61 13.43 166.82 13.43L166.82 13.43Q167.65 13.43 168.45 13.62Q169.26 13.80 169.87 14.17L169.87 14.17L169.14 15.93Q167.94 15.28 166.81 15.28L166.81 15.28Q166.10 15.28 165.78 15.49Q165.45 15.70 165.45 16.04L165.45 16.04Q165.45 16.37 165.84 16.54Q166.22 16.71 167.07 16.89L167.07 16.89Q168.03 17.10 168.66 17.33Q169.29 17.56 169.76 18.07Q170.22 18.58 170.22 19.46L170.22 19.46Q170.22 20.21 169.80 20.83Q169.38 21.44 168.54 21.80Q167.70 22.17 166.50 22.17L166.50 22.17Q165.48 22.17 164.52 21.92Q163.56 21.67 162.96 21.24ZM176.59 15.48L174.00 15.48L174.00 13.60L181.53 13.60L181.53 15.48L178.96 15.48L178.96 22L176.59 22L176.59 15.48ZM188.28 22L185.90 22L185.90 13.60L188.28 13.60L188.28 22ZM193.02 17.80L193.02 17.80Q193.02 16.54 193.62 15.54Q194.22 14.55 195.27 13.99Q196.32 13.43 197.64 13.43L197.64 13.43Q198.79 13.43 199.72 13.84Q200.64 14.25 201.26 15.02L201.26 15.02L199.74 16.39Q198.93 15.40 197.76 15.40L197.76 15.40Q197.08 15.40 196.54 15.70Q196.01 16 195.72 16.54Q195.42 17.09 195.42 17.80L195.42 17.80Q195.42 18.51 195.72 19.05Q196.01 19.60 196.54 19.90Q197.08 20.20 197.76 20.20L197.76 20.20Q198.93 20.20 199.74 19.22L199.74 19.22L201.26 20.58Q200.65 21.35 199.72 21.76Q198.79 22.17 197.64 22.17L197.64 22.17Q196.32 22.17 195.27 21.61Q194.22 21.05 193.62 20.05Q193.02 19.06 193.02 17.80ZM205.29 20.75L205.29 20.75Q205.29 20.15 205.67 19.78Q206.05 19.41 206.66 19.41L206.66 19.41Q207.24 19.41 207.63 19.78Q208.01 20.15 208.01 20.75L208.01 20.75Q208.01 21.03 207.94 21.30Q207.87 21.58 207.62 22.13L207.62 22.13L206.86 23.89L205.43 23.89L206.00 21.93Q205.66 21.77 205.47 21.47Q205.29 21.16 205.29 20.75ZM222.02 22L219.64 22L219.64 13.60L223.49 13.60Q224.62 13.60 225.46 13.98Q226.30 14.35 226.76 15.06Q227.22 15.76 227.22 16.71L227.22 16.71Q227.22 17.66 226.76 18.35Q226.30 19.05 225.46 19.42Q224.62 19.80 223.49 19.80L223.49 19.80L222.02 19.80L222.02 22ZM222.02 15.47L222.02 17.93L223.34 17.93Q224.07 17.93 224.44 17.61Q224.82 17.29 224.82 16.71L224.82 16.71Q224.82 16.12 224.44 15.80Q224.07 15.47 223.34 15.47L223.34 15.47L222.02 15.47ZM233.39 22L230.96 22L234.67 13.60L237.02 13.60L240.73 22L238.26 22L237.60 20.37L234.05 20.37L233.39 22ZM235.83 15.93L234.74 18.61L236.90 18.61L235.83 15.93ZM247.26 22L244.88 22L244.88 13.60L247.26 13.60L247.26 22ZM254.77 22L252.44 22L252.44 13.60L254.39 13.60L258.10 18.07L258.10 13.60L260.43 13.60L260.43 22L258.48 22L254.77 17.52L254.77 22ZM267.38 15.48L264.80 15.48L264.80 13.60L272.32 13.60L272.32 15.48L269.76 15.48L269.76 22L267.38 22L267.38 15.48ZM276.19 20.75L276.19 20.75Q276.19 20.15 276.58 19.78Q276.96 19.41 277.56 19.41L277.56 19.41Q278.15 19.41 278.53 19.78Q278.92 20.15 278.92 20.75L278.92 20.75Q278.92 21.03 278.85 21.30Q278.78 21.58 278.52 22.13L278.52 22.13L277.77 23.89L276.34 23.89L276.90 21.93Q276.57 21.77 276.38 21.47Q276.19 21.16 276.19 20.75ZM292.93 22L290.55 22L290.55 13.60L294.39 13.60Q295.53 13.60 296.37 13.98Q297.21 14.35 297.67 15.06Q298.12 15.76 298.12 16.71L298.12 16.71Q298.12 17.66 297.67 18.35Q297.21 19.05 296.37 19.42Q295.53 19.80 294.39 19.80L294.39 19.80L292.93 19.80L292.93 22ZM292.93 15.47L292.93 17.93L294.24 17.93Q294.98 17.93 295.35 17.61Q295.72 17.29 295.72 16.71L295.72 16.71Q295.72 16.12 295.35 15.80Q294.98 15.47 294.24 15.47L294.24 15.47L292.93 15.47ZM304.29 22L301.87 22L305.58 13.60L307.92 13.60L311.63 22L309.17 22L308.51 20.37L304.95 20.37L304.29 22ZM306.73 15.93L305.65 18.61L307.81 18.61L306.73 15.93ZM315.20 21.24L315.20 21.24L315.98 19.49Q316.54 19.86 317.29 20.09Q318.03 20.32 318.75 20.32L318.75 20.32Q320.12 20.32 320.12 19.64L320.12 19.64Q320.12 19.28 319.74 19.11Q319.35 18.93 318.48 18.74L318.48 18.74Q317.53 18.53 316.89 18.30Q316.26 18.06 315.80 17.55Q315.35 17.03 315.35 16.16L315.35 16.16Q315.35 15.39 315.77 14.77Q316.19 14.15 317.02 13.79Q317.86 13.43 319.06 13.43L319.06 13.43Q319.89 13.43 320.70 13.62Q321.50 13.80 322.12 14.17L322.12 14.17L321.38 15.93Q320.18 15.28 319.05 15.28L319.05 15.28Q318.34 15.28 318.02 15.49Q317.70 15.70 317.70 16.04L317.70 16.04Q317.70 16.37 318.08 16.54Q318.47 16.71 319.32 16.89L319.32 16.89Q320.28 17.10 320.91 17.33Q321.54 17.56 322.00 18.07Q322.46 18.58 322.46 19.46L322.46 19.46Q322.46 20.21 322.04 20.83Q321.62 21.44 320.78 21.80Q319.94 22.17 318.74 22.17L318.74 22.17Q317.72 22.17 316.76 21.92Q315.80 21.67 315.20 21.24ZM326.45 21.24L326.45 21.24L327.23 19.49Q327.79 19.86 328.54 20.09Q329.28 20.32 330.00 20.32L330.00 20.32Q331.37 20.32 331.37 19.64L331.37 19.64Q331.37 19.28 330.99 19.11Q330.60 18.93 329.73 18.74L329.73 18.74Q328.78 18.53 328.14 18.30Q327.51 18.06 327.05 17.55Q326.60 17.03 326.60 16.16L326.60 16.16Q326.60 15.39 327.02 14.77Q327.44 14.15 328.27 13.79Q329.11 13.43 330.31 13.43L330.31 13.43Q331.14 13.43 331.95 13.62Q332.75 13.80 333.37 14.17L333.37 14.17L332.63 15.93Q331.43 15.28 330.30 15.28L330.30 15.28Q329.59 15.28 329.27 15.49Q328.95 15.70 328.95 16.04L328.95 16.04Q328.95 16.37 329.33 16.54Q329.72 16.71 330.57 16.89L330.57 16.89Q331.53 17.10 332.16 17.33Q332.79 17.56 333.25 18.07Q333.71 18.58 333.71 19.46L333.71 19.46Q333.71 20.21 333.29 20.83Q332.87 21.44 332.03 21.80Q331.19 22.17 329.99 22.17L329.99 22.17Q328.97 22.17 328.01 21.92Q327.05 21.67 326.45 21.24ZM340.67 22L338.29 22L338.29 13.60L340.67 13.60L340.67 22ZM345.41 17.80L345.41 17.80Q345.41 16.55 346.02 15.55Q346.62 14.56 347.68 14.00Q348.75 13.43 350.08 13.43L350.08 13.43Q351.41 13.43 352.47 14.00Q353.54 14.56 354.14 15.55Q354.75 16.55 354.75 17.80L354.75 17.80Q354.75 19.05 354.14 20.04Q353.54 21.04 352.47 21.60Q351.41 22.17 350.08 22.17L350.08 22.17Q348.75 22.17 347.68 21.60Q346.62 21.04 346.02 20.04Q345.41 19.05 345.41 17.80ZM347.81 17.80L347.81 17.80Q347.81 18.51 348.11 19.05Q348.41 19.60 348.93 19.90Q349.45 20.20 350.08 20.20L350.08 20.20Q350.72 20.20 351.23 19.90Q351.75 19.60 352.05 19.05Q352.35 18.51 352.35 17.80L352.35 17.80Q352.35 17.09 352.05 16.54Q351.75 16 351.23 15.70Q350.72 15.40 350.08 15.40L350.08 15.40Q349.44 15.40 348.93 15.70Q348.41 16 348.11 16.54Q347.81 17.09 347.81 17.80ZM361.81 22L359.48 22L359.48 13.60L361.43 13.60L365.14 18.07L365.14 13.60L367.47 13.60L367.47 22L365.52 22L361.81 17.52L361.81 22Z" fill="#FFFFFF" x="126.31"/></svg>