<svg xmlns="http://www.w3.org/2000/svg" width="223.23999999999998" height="35" viewBox="0 0 223.23999999999998 35"><rect class="svg__rect" x="0" y="0" width="117.03" height="35" fill="#038C8C"/><rect class="svg__rect" x="115.03" y="0" width="108.20999999999998" height="35" fill="#00979C"/><path class="svg__text" d="M17.33 22L14.22 22L14.22 13.47L17.14 13.47Q18.59 13.47 19.34 14.05Q20.10 14.63 20.10 15.78L20.10 15.78Q20.10 16.36 19.78 16.83Q19.47 17.30 18.86 17.56L18.86 17.56Q19.55 17.75 19.93 18.26Q20.31 18.78 20.31 19.51L20.31 19.51Q20.31 20.71 19.53 21.36Q18.76 22 17.33 22L17.33 22ZM15.70 18.15L15.70 20.82L17.35 20.82Q18.04 20.82 18.44 20.47Q18.83 20.13 18.83 19.51L18.83 19.51Q18.83 18.18 17.47 18.15L17.47 18.15L15.70 18.15ZM15.70 14.66L15.70 17.06L17.15 17.06Q17.84 17.06 18.23 16.75Q18.62 16.43 18.62 15.86L18.62 15.86Q18.62 15.23 18.26 14.95Q17.90 14.66 17.14 14.66L17.14 14.66L15.70 14.66ZM24.64 19.16L24.64 19.16L24.64 13.47L26.12 13.47L26.12 19.18Q26.12 20.03 26.55 20.48Q26.98 20.93 27.83 20.93L27.83 20.93Q29.54 20.93 29.54 19.13L29.54 19.13L29.54 13.47L31.02 13.47L31.02 19.17Q31.02 20.53 30.15 21.32Q29.28 22.12 27.83 22.12L27.83 22.12Q26.36 22.12 25.50 21.33Q24.64 20.55 24.64 19.16ZM37.15 22L35.67 22L35.67 13.47L37.15 13.47L37.15 22ZM47.32 22L41.96 22L41.96 13.47L43.44 13.47L43.44 20.82L47.32 20.82L47.32 22ZM53.12 14.66L50.49 14.66L50.49 13.47L57.25 13.47L57.25 14.66L54.59 14.66L54.59 22L53.12 22L53.12 14.66ZM68.37 22L66.40 13.47L67.87 13.47L69.20 19.88L70.82 13.47L72.07 13.47L73.68 19.89L74.99 13.47L76.46 13.47L74.49 22L73.07 22L71.45 15.77L69.79 22L68.37 22ZM82.10 22L80.62 22L80.62 13.47L82.10 13.47L82.10 22ZM88.59 14.66L85.95 14.66L85.95 13.47L92.72 13.47L92.72 14.66L90.06 14.66L90.06 22L88.59 22L88.59 14.66ZM97.96 22L96.48 22L96.48 13.47L97.96 13.47L97.96 17.02L101.77 17.02L101.77 13.47L103.25 13.47L103.25 22L101.77 22L101.77 18.21L97.96 18.21L97.96 22Z" fill="#FFFFFF"/><path class="svg__text" d="M130.64 22L128.21 22L131.92 13.60L134.26 13.60L137.98 22L135.51 22L134.85 20.37L131.30 20.37L130.64 22ZM133.07 15.93L131.99 18.61L134.15 18.61L133.07 15.93ZM144.51 22L142.13 22L142.13 13.60L145.98 13.60Q147.12 13.60 147.96 13.98Q148.79 14.35 149.25 15.06Q149.71 15.76 149.71 16.71L149.71 16.71Q149.71 17.62 149.28 18.30Q148.85 18.98 148.06 19.36L148.06 19.36L149.87 22L147.33 22L145.81 19.77L144.51 19.77L144.51 22ZM144.51 15.47L144.51 17.93L145.83 17.93Q146.56 17.93 146.93 17.61Q147.31 17.29 147.31 16.71L147.31 16.71Q147.31 16.12 146.93 15.79Q146.56 15.47 145.83 15.47L145.83 15.47L144.51 15.47ZM158.47 22L154.50 22L154.50 13.60L158.47 13.60Q159.85 13.60 160.92 14.12Q161.98 14.63 162.57 15.58Q163.16 16.53 163.16 17.80L163.16 17.80Q163.16 19.07 162.57 20.02Q161.98 20.97 160.92 21.48Q159.85 22 158.47 22L158.47 22ZM156.87 15.50L156.87 20.10L158.37 20.10Q159.45 20.10 160.11 19.49Q160.76 18.88 160.76 17.80L160.76 17.80Q160.76 16.72 160.11 16.11Q159.45 15.50 158.37 15.50L158.37 15.50L156.87 15.50ZM167.82 18.26L167.82 18.26L167.82 13.60L170.20 13.60L170.20 18.19Q170.20 20.20 171.79 20.20L171.79 20.20Q173.37 20.20 173.37 18.19L173.37 18.19L173.37 13.60L175.72 13.60L175.72 18.26Q175.72 20.13 174.68 21.15Q173.64 22.17 171.77 22.17L171.77 22.17Q169.89 22.17 168.86 21.15Q167.82 20.13 167.82 18.26ZM183.18 22L180.80 22L180.80 13.60L183.18 13.60L183.18 22ZM190.69 22L188.36 22L188.36 13.60L190.31 13.60L194.02 18.07L194.02 13.60L196.35 13.60L196.35 22L194.40 22L190.69 17.52L190.69 22ZM201.08 17.80L201.08 17.80Q201.08 16.55 201.69 15.55Q202.29 14.56 203.35 14.00Q204.42 13.43 205.75 13.43L205.75 13.43Q207.08 13.43 208.14 14.00Q209.20 14.56 209.81 15.55Q210.42 16.55 210.42 17.80L210.42 17.80Q210.42 19.05 209.81 20.04Q209.20 21.04 208.14 21.60Q207.08 22.17 205.75 22.17L205.75 22.17Q204.42 22.17 203.35 21.60Q202.29 21.04 201.69 20.04Q201.08 19.05 201.08 17.80ZM203.48 17.80L203.48 17.80Q203.48 18.51 203.78 19.05Q204.08 19.60 204.60 19.90Q205.11 20.20 205.75 20.20L205.75 20.20Q206.39 20.20 206.90 19.90Q207.42 19.60 207.72 19.05Q208.01 18.51 208.01 17.80L208.01 17.80Q208.01 17.09 207.72 16.54Q207.42 16 206.90 15.70Q206.39 15.40 205.75 15.40L205.75 15.40Q205.11 15.40 204.60 15.70Q204.08 16 203.78 16.54Q203.48 17.09 203.48 17.80Z" fill="#FFFFFF" x="128.03"/></svg>