<svg xmlns="http://www.w3.org/2000/svg" width="236.95" height="35" viewBox="0 0 236.95 35"><rect class="svg__rect" x="0" y="0" width="132.05" height="35" fill="#EA7600"/><rect class="svg__rect" x="130.05" y="0" width="106.89999999999998" height="35" fill="#236192"/><path class="svg__text" d="M15.69 22L14.22 22L14.22 13.47L16.14 13.47L18.60 20.01L21.06 13.47L22.97 13.47L22.97 22L21.49 22L21.49 19.19L21.64 15.43L19.12 22L18.06 22L15.55 15.43L15.69 19.19L15.69 22ZM27.44 18.00L27.44 18.00L27.44 17.52Q27.44 16.28 27.88 15.32Q28.33 14.37 29.13 13.86Q29.94 13.35 30.98 13.35Q32.02 13.35 32.83 13.85Q33.64 14.35 34.07 15.29Q34.51 16.23 34.52 17.48L34.52 17.48L34.52 17.96Q34.52 19.21 34.09 20.16Q33.65 21.10 32.85 21.61Q32.04 22.12 30.99 22.12L30.99 22.12Q29.96 22.12 29.14 21.61Q28.33 21.10 27.89 20.17Q27.45 19.23 27.44 18.00ZM28.92 17.46L28.92 17.96Q28.92 19.36 29.47 20.13Q30.02 20.90 30.99 20.90L30.99 20.90Q31.98 20.90 32.51 20.15Q33.04 19.40 33.04 17.96L33.04 17.96L33.04 17.51Q33.04 16.09 32.50 15.34Q31.97 14.58 30.98 14.58L30.98 14.58Q30.02 14.58 29.48 15.33Q28.94 16.09 28.92 17.46L28.92 17.46ZM41.44 22L38.98 22L38.98 13.47L41.50 13.47Q42.64 13.47 43.51 13.97Q44.39 14.48 44.87 15.40Q45.35 16.33 45.35 17.52L45.35 17.52L45.35 17.95Q45.35 19.16 44.86 20.08Q44.38 21.00 43.49 21.50Q42.59 22 41.44 22L41.44 22ZM40.47 14.66L40.47 20.82L41.43 20.82Q42.60 20.82 43.22 20.09Q43.85 19.36 43.86 17.99L43.86 17.99L43.86 17.52Q43.86 16.13 43.26 15.40Q42.65 14.66 41.50 14.66L41.50 14.66L40.47 14.66ZM55.39 22L49.81 22L49.81 13.47L55.35 13.47L55.35 14.66L51.30 14.66L51.30 17.02L54.80 17.02L54.80 18.19L51.30 18.19L51.30 20.82L55.39 20.82L55.39 22ZM64.94 22L59.59 22L59.59 13.47L61.07 13.47L61.07 20.82L64.94 20.82L64.94 22ZM74.42 22L69.07 22L69.07 13.47L70.55 13.47L70.55 20.82L74.42 20.82L74.42 22ZM84.13 22L78.55 22L78.55 13.47L84.08 13.47L84.08 14.66L80.03 14.66L80.03 17.02L83.53 17.02L83.53 18.19L80.03 18.19L80.03 20.82L84.13 20.82L84.13 22ZM90.78 22L88.32 22L88.32 13.47L90.84 13.47Q91.97 13.47 92.85 13.97Q93.72 14.48 94.20 15.40Q94.68 16.33 94.68 17.52L94.68 17.52L94.68 17.95Q94.68 19.16 94.20 20.08Q93.72 21.00 92.82 21.50Q91.93 22 90.78 22L90.78 22ZM89.80 14.66L89.80 20.82L90.77 20.82Q91.94 20.82 92.56 20.09Q93.18 19.36 93.20 17.99L93.20 17.99L93.20 17.52Q93.20 16.13 92.59 15.40Q91.99 14.66 90.84 14.66L90.84 14.66L89.80 14.66ZM106.69 22L105.21 22L105.21 13.47L106.69 13.47L106.69 22ZM112.98 22L111.50 22L111.50 13.47L112.98 13.47L116.80 19.54L116.80 13.47L118.27 13.47L118.27 22L116.79 22L112.98 15.95L112.98 22Z" fill="#FFFFFF"/><path class="svg__text" d="M148.78 22L144.24 22L144.24 13.60L148.54 13.60Q150.14 13.60 150.98 14.19Q151.83 14.79 151.83 15.79L151.83 15.79Q151.83 16.39 151.53 16.87Q151.23 17.34 150.69 17.62L150.69 17.62Q151.42 17.87 151.82 18.41Q152.23 18.94 152.23 19.70L152.23 19.70Q152.23 20.80 151.34 21.40Q150.45 22 148.78 22L148.78 22ZM146.59 18.58L146.59 20.28L148.59 20.28Q149.83 20.28 149.83 19.43L149.83 19.43Q149.83 18.58 148.59 18.58L148.59 18.58L146.59 18.58ZM146.59 15.31L146.59 16.94L148.22 16.94Q149.42 16.94 149.42 16.12L149.42 16.12Q149.42 15.31 148.22 15.31L148.22 15.31L146.59 15.31ZM163.33 22L156.95 22L156.95 13.60L159.33 13.60L159.33 20.11L163.33 20.11L163.33 22ZM174.50 22L167.75 22L167.75 13.60L174.34 13.60L174.34 15.44L170.11 15.44L170.11 16.85L173.84 16.85L173.84 18.63L170.11 18.63L170.11 20.17L174.50 20.17L174.50 22ZM181.63 22L179.30 22L179.30 13.60L181.26 13.60L184.97 18.07L184.97 13.60L187.29 13.60L187.29 22L185.34 22L181.63 17.52L181.63 22ZM196.43 22L192.45 22L192.45 13.60L196.43 13.60Q197.81 13.60 198.88 14.12Q199.94 14.63 200.53 15.58Q201.12 16.53 201.12 17.80L201.12 17.80Q201.12 19.07 200.53 20.02Q199.94 20.97 198.88 21.48Q197.81 22 196.43 22L196.43 22ZM194.83 15.50L194.83 20.10L196.33 20.10Q197.41 20.10 198.07 19.49Q198.72 18.88 198.72 17.80L198.72 17.80Q198.72 16.72 198.07 16.11Q197.41 15.50 196.33 15.50L196.33 15.50L194.83 15.50ZM212.59 22L205.85 22L205.85 13.60L212.44 13.60L212.44 15.44L208.20 15.44L208.20 16.85L211.94 16.85L211.94 18.63L208.20 18.63L208.20 20.17L212.59 20.17L212.59 22ZM219.78 22L217.40 22L217.40 13.60L221.24 13.60Q222.38 13.60 223.22 13.98Q224.06 14.35 224.52 15.06Q224.97 15.76 224.97 16.71L224.97 16.71Q224.97 17.62 224.55 18.30Q224.12 18.98 223.33 19.36L223.33 19.36L225.14 22L222.60 22L221.07 19.77L219.78 19.77L219.78 22ZM219.78 15.47L219.78 17.93L221.10 17.93Q221.83 17.93 222.20 17.61Q222.57 17.29 222.57 16.71L222.57 16.71Q222.57 16.12 222.20 15.79Q221.83 15.47 221.10 15.47L221.10 15.47L219.78 15.47Z" fill="#FFFFFF" x="143.05"/></svg>